<svg width="120" height="29" viewBox="0 0 120 29" fill="none" xmlns="http://www.w3.org/2000/svg" class="h-auto w-[120px]"><path d="M115.088 1.82204C115.088 1.11725 115.658 0.545898 116.361 0.545898H118.727C119.43 0.545898 120 1.11725 120 1.82204V26.6076C120 27.3124 119.43 27.8837 118.727 27.8837H116.249C115.802 27.8837 115.389 27.6497 115.158 27.2668L104.931 10.273C104.798 10.0516 104.458 10.1463 104.458 10.4049V26.6076C104.458 27.3124 103.888 27.8837 103.185 27.8837H100.819C100.116 27.8837 99.5461 27.3124 99.5461 26.6076V1.82204C99.5461 1.11725 100.116 0.545898 100.819 0.545898H103.451C103.899 0.545898 104.313 0.781161 104.543 1.16564L114.615 17.9977C114.748 18.2197 115.088 18.1253 115.088 17.8665V1.82204Z" fill="white"></path><path d="M0.0170365 21.1772C-0.108063 20.4837 0.473628 19.9077 1.17675 19.9077H3.52104C4.21215 19.9077 4.75783 20.4775 5.01239 21.1216C5.64927 22.733 7.45862 23.9814 9.90964 23.9814C12.9504 23.9814 14.5358 22.2648 14.5358 20.1383C14.5358 18.0117 12.8984 17.115 10.5594 16.5L7.10276 15.5521C1.15114 14.0404 0.111554 10.5047 0.111554 8.12192C0.111554 3.27951 4.42583 0 9.5198 0C14.1768 0 17.878 2.59112 18.4788 6.9511C18.5749 7.64927 17.9942 8.2244 17.2911 8.2244H14.9772C14.2741 8.2244 13.7287 7.63777 13.5075 6.96878C12.9841 5.38618 11.4548 4.32998 9.38985 4.32998C6.81688 4.32998 5.04958 5.91849 5.04958 8.07067C5.04958 10.2229 5.28349 10.4022 8.48021 11.2477L11.7809 12.1957C16.1212 13.3743 19.4738 15.6033 19.4738 19.9589C19.4738 24.3145 15.2375 28.2858 9.80568 28.2858C4.87954 28.2858 0.744298 25.2092 0.0170365 21.1772Z" fill="white"></path><path d="M30.7373 4.14201C25.891 8.91953 25.4281 16.1764 28.9792 21.5897C29.3955 22.2242 30.2933 22.2727 30.8353 21.7384L32.556 20.042C33.0037 19.6007 33.05 18.9071 32.7307 18.3681C30.6419 14.8414 30.8634 10.4311 33.9533 7.38494C37.0448 4.33724 41.5837 4.05898 45.1835 6.10046C45.7304 6.41062 46.4309 6.36378 46.8771 5.92396L48.5866 4.23865C49.1286 3.70435 49.0794 2.81926 48.4358 2.40893C42.9447 -1.0919 35.5835 -0.635504 30.7373 4.14201Z" fill="white"></path><g filter="url(#filter0_i_6693_15506)"><path d="M49.2275 8.2207C48.7799 8.66191 48.7337 9.35521 49.051 9.89515C51.1466 13.462 50.8306 17.9598 47.7551 20.9916C44.6818 24.0214 40.1778 24.2595 36.5896 22.1862C36.0422 21.8699 35.3367 21.9146 34.888 22.3569L33.1681 24.0524C32.6273 24.5855 32.6748 25.4684 33.3158 25.8797C38.8087 29.4046 46.1816 28.92 51.0263 24.144C55.871 19.3679 56.3626 12.0996 52.787 6.68455C52.3698 6.05265 51.4742 6.0058 50.9334 6.53894L49.2275 8.2207Z" fill="white" fill-opacity="0.3"></path></g><path d="M84.7439 8.20442C84.297 8.64605 84.2508 9.33996 84.5671 9.88063C86.6554 13.4492 86.334 17.9525 83.2588 20.9915C80.1857 24.0284 75.6873 24.2724 72.1061 22.2013C71.5593 21.885 70.8549 21.9299 70.4068 22.3726L68.6848 24.0744C68.1445 24.6083 68.1921 25.4925 68.8327 25.904C74.3145 29.4253 81.6779 28.9309 86.5221 24.1437C91.3663 19.3566 91.8666 12.0798 88.3034 6.66263C87.887 6.02958 86.9922 5.98254 86.452 6.51643L84.7439 8.20442ZM66.2827 4.14265C61.437 8.9313 60.9653 16.1965 64.5042 21.612C64.9196 22.2476 65.8166 22.2963 66.358 21.7612L68.0809 20.0586C68.5279 19.6169 68.5742 18.9227 68.2558 18.383C66.1744 14.8546 66.4011 10.439 69.4909 7.38567C72.5822 4.33074 77.1155 4.04652 80.7083 6.08574C81.2546 6.39581 81.9541 6.34883 82.3995 5.90859L84.1112 4.21704C84.6527 3.68199 84.6034 2.79559 83.9602 2.38509C78.4802 -1.11219 71.1284 -0.646 66.2827 4.14265Z" fill="white"></path><defs><filter id="filter0_i_6693_15506" x="32.7958" y="6.17188" width="22.3251" height="22.0088" filterUnits="userSpaceOnUse" color-interpolation-filters="sRGB"><feFlood flood-opacity="0" result="BackgroundImageFix"></feFlood><feBlend mode="normal" in="SourceGraphic" in2="BackgroundImageFix" result="shape"></feBlend><feColorMatrix in="SourceAlpha" type="matrix" values="0 0 0 0 0 0 0 0 0 0 0 0 0 0 0 0 0 0 127 0" result="hardAlpha"></feColorMatrix><feOffset></feOffset><feGaussianBlur stdDeviation="5"></feGaussianBlur><feComposite in2="hardAlpha" operator="arithmetic" k2="-1" k3="1"></feComposite><feColorMatrix type="matrix" values="0 0 0 0 1 0 0 0 0 1 0 0 0 0 1 0 0 0 0.7 0"></feColorMatrix><feBlend mode="normal" in2="shape" result="effect1_innerShadow_6693_15506"></feBlend></filter></defs></svg>
